<svg xmlns="http://www.w3.org/2000/svg" width="200" height="107" fill="none" viewBox="0 0 200 107">
  <path fill="#808181" d="M84.025 69.542c0 1.086-.625 1.965-1.718 1.965h-1.285v1.845c0 .241-.117.373-.326.373h-.37c-.21 0-.326-.132-.326-.373v-5.47c0-.242.117-.374.325-.374h1.982c1.098 0 1.718.942 1.718 2.034Zm-1.047-.006c0-.603-.325-1.04-.843-1.04H81.02v2.069h1.114c.528 0 .843-.437.843-1.029Zm3.034 3.816v-5.47c0-.242.117-.374.326-.374h.37c.209 0 .326.132.326.373v4.862h2.134c.209 0 .33.143.33.379v.23c0 .241-.121.373-.33.373h-2.83c-.209 0-.326-.132-.326-.373Zm4.904-.063 1.835-5.482c.071-.207.193-.305.381-.305h.503c.188 0 .31.098.382.305l1.855 5.482c.086.258-.016.436-.254.436h-.371c-.194 0-.316-.097-.387-.304l-.3-.914h-2.337l-.3.914c-.061.207-.188.304-.371.304h-.371c-.25 0-.35-.178-.264-.436Zm3.395-1.713-.93-2.884-.93 2.884h1.86Zm6.795-3.695v.23c0 .242-.117.385-.325.385h-1.377v4.862c0 .241-.117.373-.325.373h-.366c-.209 0-.326-.132-.326-.373v-4.862h-1.372c-.208 0-.325-.143-.325-.385v-.23c0-.241.117-.373.325-.373h3.761c.213 0 .33.132.33.373Zm.834 5.408 1.834-5.482c.072-.207.193-.305.382-.305h.503c.188 0 .31.098.381.305l1.855 5.482c.086.258-.015.436-.254.436h-.371c-.193 0-.315-.097-.387-.304l-.299-.914h-2.338l-.3.914c-.061.207-.188.304-.371.304h-.371c-.249 0-.351-.178-.264-.436Zm3.4-1.713-.93-2.884-.93 2.884h1.86Zm7.094-3.695v.23c0 .242-.122.385-.335.385h-2.231v1.707h1.906c.208 0 .335.132.335.373v.178c0 .242-.122.386-.335.386h-1.906v2.218c0 .241-.117.373-.325.373h-.371c-.209 0-.326-.132-.326-.373v-5.47c0-.242.117-.374.326-.374h2.927c.208-.006.335.126.335.367Zm1.591 2.736c0-1.759 1.215-3.207 2.846-3.207 1.626 0 2.841 1.448 2.841 3.207 0 1.758-1.215 3.206-2.841 3.206-1.631 0-2.846-1.448-2.846-3.206Zm4.65 0c0-1.224-.782-2.178-1.804-2.178-1.032 0-1.809.948-1.809 2.178s.783 2.177 1.809 2.177c1.022 0 1.804-.953 1.804-2.177Zm5.011.833h-.899v1.902c0 .241-.117.373-.325.373h-.371c-.209 0-.326-.132-.326-.373v-5.47c0-.242.117-.374.326-.374h2.043c1.107 0 1.727.925 1.727 2.017 0 .925-.447 1.66-1.229 1.867.055.655.386 1.477.914 1.477.153 0 .27-.029.371-.086.194-.086.3-.052.397.16l.056.127c.086.213.071.391-.102.506a1.452 1.452 0 0 1-.849.259c-1.321-.012-1.677-1.661-1.733-2.385Zm.29-.885c.518 0 .844-.437.844-1.029 0-.603-.336-1.04-.844-1.04h-1.184v2.069h1.184Zm4.05 2.764.448-5.465c.015-.23.132-.356.33-.356h.488c.188 0 .3.086.381.293l1.53 4.246 1.524-4.246c.077-.207.194-.293.382-.293h.488c.203 0 .315.126.33.356l.447 5.465c.02.259-.102.402-.315.402h-.366c-.203 0-.325-.126-.34-.356l-.295-3.942-1.403 3.936c-.071.195-.188.293-.381.293h-.163c-.193 0-.31-.098-.381-.293l-1.402-3.936-.295 3.942c-.015.23-.137.356-.341.356h-.361c-.203-.006-.325-.15-.305-.402Zm8.117-.04 1.834-5.482c.072-.207.194-.305.382-.305h.503c.188 0 .31.098.381.305l1.855 5.482c.086.258-.015.436-.254.436h-.371c-.193 0-.315-.097-.387-.304l-.299-.914h-2.338l-.3.914c-.061.207-.188.304-.371.304h-.371c-.249 0-.346-.178-.264-.436Zm3.4-1.713-.93-2.884-.93 2.884h1.86Zm6.302 1.776v-5.47c0-.242.116-.374.325-.374h1.641c1.688 0 2.78 1.396 2.78 3.109 0 1.712-1.092 3.108-2.78 3.108h-1.641c-.209 0-.325-.132-.325-.373Zm1.905-.61c1.113 0 1.805-.924 1.805-2.12 0-1.195-.692-2.132-1.805-2.12h-.884v4.247h.884v-.006Zm5.931-4.246v1.707h1.891c.208 0 .33.132.33.373v.178c0 .242-.122.385-.33.385h-1.891v1.61h2.221c.209 0 .325.143.325.379v.23c0 .24-.116.373-.325.373h-2.917c-.208 0-.325-.132-.325-.373v-5.47c0-.242.117-.375.325-.375h2.917c.209 0 .325.133.325.374v.23c0 .241-.116.385-.325.385h-2.221v-.006Zm7.354 2.132c0-1.775 1.24-3.218 2.872-3.218.65 0 1.189.15 1.692.5.178.132.203.31.091.523l-.137.213c-.106.207-.254.23-.447.126-.508-.31-.844-.328-1.199-.328-1.037 0-1.835.966-1.835 2.184 0 1.11.656 2.166 1.911 2.166a1.97 1.97 0 0 0 1.093-.327v-1.092h-1.083c-.208 0-.325-.144-.325-.38v-.148c0-.242.117-.374.325-.374h1.713c.208 0 .325.132.325.374v1.792a.61.61 0 0 1-.239.506 2.769 2.769 0 0 1-1.835.684c-1.722-.006-2.922-1.454-2.922-3.2Zm8.147-2.132v1.707h1.89c.209 0 .331.132.331.373v.178c0 .242-.122.385-.331.385h-1.89v1.61h2.221c.208 0 .325.143.325.379v.23c0 .24-.117.373-.325.373h-2.917c-.209 0-.326-.132-.326-.373v-5.47c0-.242.117-.375.326-.375h2.917c.208 0 .325.133.325.374v.23c0 .241-.117.385-.325.385h-2.221v-.006Zm4.32 4.023c-.087-.23.025-.403.234-.454l.269-.08c.203-.052.3.034.412.246.177.357.559.615 1.052.615.62 0 .996-.327.996-.799 0-.39-.27-.655-.697-.833l-.752-.304c-.833-.31-1.357-.943-1.357-1.707 0-1.109.834-1.793 1.835-1.793.844 0 1.448.454 1.718 1.155.091.224 0 .408-.209.471l-.249.08c-.193.07-.315-.016-.416-.223-.153-.34-.443-.5-.834-.5-.442 0-.828.264-.828.747 0 .241.086.534.625.764l.757.322c.981.362 1.393 1.04 1.403 1.758 0 1.167-.834 1.84-1.982 1.84-.986 0-1.688-.524-1.977-1.305Zm9.9-4.638v.23c0 .242-.117.385-.325.385h-1.378v4.862c0 .241-.117.373-.325.373h-.366c-.208 0-.325-.132-.325-.373v-4.862h-1.372c-.209 0-.326-.143-.326-.385v-.23c0-.241.117-.373.326-.373h3.76c.214 0 .331.132.331.373Zm.833 5.408 1.835-5.482c.071-.207.193-.305.381-.305h.503c.188 0 .31.098.381.305l1.855 5.482c.087.258-.015.436-.254.436h-.371c-.193 0-.315-.097-.386-.304l-.3-.914h-2.338l-.299.914c-.061.207-.188.304-.371.304h-.371c-.249 0-.351-.178-.265-.436Zm1.423-6.436-.106-.035c-.107-.046-.148-.132-.117-.264.147-.517.34-.799.726-.799.397 0 .783.385 1.032.385.178 0 .269-.092.351-.264.056-.115.122-.15.234-.115l.106.034c.102.046.148.133.107.265-.137.517-.335.799-.722.799-.396 0-.782-.385-1.036-.385-.168 0-.265.086-.341.258-.056.12-.122.155-.234.12Zm1.977 4.723-.93-2.884-.93 2.884h1.86Zm2.958-.959c0-1.759 1.215-3.207 2.846-3.207 1.626 0 2.841 1.448 2.841 3.207 0 1.758-1.215 3.206-2.841 3.206-1.631 0-2.846-1.448-2.846-3.206Zm4.655 0c0-1.224-.782-2.178-1.804-2.178-1.032 0-1.809.948-1.809 2.178s.783 2.177 1.809 2.177c1.022 0 1.804-.953 1.804-2.177Z"/>
  <path fill="#1B1B1B" d="M149.075 62.356c-1.042 0-2.001-.152-2.882-.456-.88-.305-1.586-.692-2.112-1.162-.525-.47-.793-.973-.793-1.499 0-.272.074-.563.217-.876.143-.314.341-.581.59-.802.249-.226.526-.337.83-.337.286 0 .558.088.803.263.249.175.521.383.816.622.295.24.641.448 1.033.623.392.175.867.263 1.429.263.369 0 .733-.051 1.093-.157.36-.106.655-.272.89-.503.235-.23.346-.54.346-.922 0-.415-.134-.77-.406-1.07-.272-.295-.636-.562-1.093-.802-.456-.24-.95-.484-1.489-.733a29.528 29.528 0 0 1-1.619-.816 7.957 7.957 0 0 1-1.498-1.056 4.539 4.539 0 0 1-1.093-1.476c-.272-.576-.411-1.263-.411-2.066 0-.894.176-1.66.531-2.291a4.351 4.351 0 0 1 1.415-1.536 6.324 6.324 0 0 1 1.978-.862 9.008 9.008 0 0 1 2.223-.277c.318 0 .742.023 1.273.074.53.05 1.06.143 1.595.286.535.143.987.355 1.356.636.369.281.553.65.553 1.116 0 .207-.05.47-.157.78-.106.308-.262.59-.479.83-.217.239-.498.359-.853.359-.286 0-.558-.074-.803-.226a6.575 6.575 0 0 0-.936-.457c-.378-.152-.894-.226-1.549-.226-.558 0-1.019.07-1.379.203-.359.139-.622.314-.779.53a1.16 1.16 0 0 0-.24.71c0 .337.134.628.406.877s.636.48 1.093.696c.456.217.95.443 1.489.673.535.231 1.075.503 1.619.817a7.852 7.852 0 0 1 1.498 1.115c.457.434.821.96 1.093 1.587.272.622.406 1.37.406 2.232 0 1.152-.258 2.125-.779 2.918a4.888 4.888 0 0 1-2.126 1.799c-.899.392-1.932.6-3.099.6Zm14.304-.096c-1.134 0-2.158-.185-3.071-.554a4.54 4.54 0 0 1-2.172-1.803c-.535-.83-.802-1.937-.802-3.31V45.69c0-.4.194-.687.576-.862a3.088 3.088 0 0 1 1.296-.263c.466 0 .89.088 1.287.263.392.175.59.466.59.862v10.901c0 .816.203 1.42.613 1.812.411.392.973.59 1.692.59.72 0 1.287-.193 1.693-.59.406-.392.613-.996.613-1.812v-10.9c0-.402.194-.688.576-.863a3.088 3.088 0 0 1 1.296-.263c.466 0 .89.088 1.287.263.392.175.59.466.59.862v10.901c0 1.379-.268 2.48-.802 3.31a4.54 4.54 0 0 1-2.172 1.804c-.927.369-1.951.553-3.09.553Zm10.251-.144a3.21 3.21 0 0 1-1.07-.203 2.745 2.745 0 0 1-.95-.553c-.258-.23-.383-.493-.383-.78 0-.045.014-.133.047-.262l4.463-14.645c.129-.415.434-.729.913-.936a3.83 3.83 0 0 1 1.536-.314c.558 0 1.074.106 1.549.314.47.207.77.52.899.936l4.492 14.645a1.3 1.3 0 0 1 .046.263c0 .286-.129.548-.383.78-.258.23-.567.414-.936.552a3.16 3.16 0 0 1-1.079.203c-.304 0-.563-.05-.779-.156-.217-.102-.365-.286-.443-.54l-.816-3.002h-5.063l-.817 3.002a.753.753 0 0 1-.433.54 1.917 1.917 0 0 1-.793.156Zm2.808-6.58h3.505l-1.753-6.432-1.752 6.432Zm15.558 6.82c-1.042 0-2.001-.152-2.882-.456-.88-.305-1.586-.692-2.112-1.162-.525-.47-.793-.973-.793-1.499 0-.272.074-.563.217-.876.143-.314.341-.581.59-.803.249-.225.526-.336.83-.336.286 0 .558.088.803.263.249.175.521.383.816.622.295.24.641.447 1.033.623.392.175.867.263 1.429.263.369 0 .733-.051 1.093-.157a2.08 2.08 0 0 0 .89-.503c.235-.23.346-.54.346-.922 0-.415-.134-.77-.406-1.07-.272-.295-.636-.562-1.093-.802-.456-.24-.95-.484-1.489-.733a29.457 29.457 0 0 1-1.619-.817 7.957 7.957 0 0 1-1.498-1.056 4.539 4.539 0 0 1-1.093-1.475c-.272-.577-.411-1.264-.411-2.066 0-.895.176-1.66.531-2.292a4.351 4.351 0 0 1 1.415-1.535 6.306 6.306 0 0 1 1.978-.862 9.013 9.013 0 0 1 2.223-.277c.318 0 .742.023 1.273.074.53.05 1.06.143 1.595.285.535.144.987.356 1.356.637.369.281.553.65.553 1.116 0 .207-.051.47-.157.78-.106.308-.262.59-.479.83-.217.239-.498.359-.853.359-.286 0-.558-.074-.803-.226a6.565 6.565 0 0 0-.936-.457c-.378-.152-.894-.226-1.549-.226-.558 0-1.019.07-1.379.203-.359.139-.622.314-.779.53a1.16 1.16 0 0 0-.24.71c0 .337.134.628.406.877s.636.48 1.093.696c.456.217.95.443 1.489.673.535.23 1.075.503 1.619.816a7.844 7.844 0 0 1 1.498 1.116c.457.434.821.96 1.093 1.587.272.622.406 1.37.406 2.231 0 1.153-.258 2.126-.779 2.92a4.889 4.889 0 0 1-2.126 1.798c-.899.392-1.932.6-3.099.6Zm-143.79-.096c-1.042 0-2.002-.185-2.882-.554a4.43 4.43 0 0 1-2.098-1.803c-.521-.83-.78-1.937-.78-3.31v-6.364c0-1.374.259-2.481.78-3.311.52-.83 1.222-1.434 2.098-1.798.88-.37 1.84-.554 2.882-.554 1.152 0 2.18.19 3.085.563.903.378 1.618.917 2.148 1.618.53.706.794 1.568.794 2.592 0 .72-.153 1.194-.457 1.43-.304.23-.775.345-1.416.345-.498 0-.922-.078-1.286-.24-.36-.161-.558-.456-.59-.89 0-.161-.019-.36-.06-.6a2.362 2.362 0 0 0-.254-.718c-.13-.24-.337-.439-.623-.6-.285-.161-.686-.24-1.198-.24-.687 0-1.222.199-1.596.59-.378.392-.562.997-.562 1.813v6.363c0 .816.193 1.42.576 1.812.383.392.922.59 1.61.59.479 0 .862-.078 1.138-.24a1.51 1.51 0 0 0 .614-.612 2.65 2.65 0 0 0 .262-.78 8.1 8.1 0 0 0 .097-.77c.032-.447.226-.747.59-.9.36-.151.78-.23 1.26-.23.654 0 1.134.116 1.438.346.304.23.456.71.456 1.43 0 1.056-.262 1.96-.793 2.711-.525.752-1.245 1.324-2.148 1.715-.904.392-1.932.595-3.085.595Zm14.091 0c-1.102 0-2.102-.185-2.988-.554a4.44 4.44 0 0 1-2.111-1.803c-.522-.83-.78-1.937-.78-3.31v-6.364c0-1.374.258-2.481.78-3.311.52-.83 1.221-1.434 2.111-1.798.89-.37 1.886-.554 2.989-.554 1.102 0 2.102.185 3.001.553a4.467 4.467 0 0 1 2.126 1.799c.521.834.78 1.937.78 3.31v6.364c0 1.379-.259 2.48-.78 3.31a4.43 4.43 0 0 1-2.126 1.804c-.899.369-1.9.553-3.002.553Zm0-3.265c.674 0 1.2-.194 1.587-.577.387-.383.576-.991.576-1.826V50.23c0-.83-.194-1.439-.576-1.826-.383-.388-.913-.577-1.587-.577-.673 0-1.194.194-1.572.577-.378.382-.563.991-.563 1.826v6.363c0 .83.19 1.439.563 1.826.374.388.9.577 1.572.577Zm10.657 3.121c-.466 0-.895-.096-1.287-.285-.392-.194-.59-.48-.59-.863V45.724c0-.402.194-.692.59-.877a2.99 2.99 0 0 1 1.287-.276c.447 0 .82.037 1.116.106.295.074.567.235.816.493s.526.683.83 1.273l3.887 7.42V45.7c0-.4.194-.687.59-.862a3.121 3.121 0 0 1 1.287-.263c.466 0 .89.088 1.286.263.392.175.59.466.59.862v15.268c0 .383-.193.673-.59.862a2.85 2.85 0 0 1-1.286.286c-.434 0-.83-.064-1.199-.193-.369-.13-.664-.401-.89-.817l-4.56-8.304v8.162c0 .382-.199.673-.59.862a2.86 2.86 0 0 1-1.287.29Zm15.102 0c-.402 0-.77-.096-1.116-.285-.346-.194-.517-.48-.517-.863V45.724c0-.383.17-.674.517-.863a2.236 2.236 0 0 1 1.116-.286H96.6c.401 0 .687.171.867.517.175.346.263.71.263 1.093 0 .447-.097.834-.286 1.162-.194.327-.47.493-.84.493h-6.432v4.058h3.601c.37 0 .65.148.84.443.193.295.285.636.285 1.019 0 .318-.087.636-.262.95-.175.313-.466.465-.863.465h-3.6v4.081h6.432c.369 0 .65.166.839.494.194.327.286.714.286 1.162 0 .382-.088.747-.263 1.093-.175.345-.466.516-.867.516h-8.544v-.005Zm17.185.144c-1.042 0-2.001-.185-2.882-.554a4.435 4.435 0 0 1-2.098-1.803c-.52-.83-.779-1.937-.779-3.31v-6.364c0-1.374.258-2.481.779-3.311.521-.83 1.222-1.434 2.098-1.798.881-.37 1.84-.554 2.882-.554 1.153 0 2.182.19 3.085.563.904.378 1.619.917 2.149 1.618.53.706.793 1.568.793 2.592 0 .72-.152 1.194-.456 1.43-.305.23-.775.345-1.416.345-.498 0-.922-.078-1.286-.24-.36-.161-.558-.456-.591-.89 0-.161-.018-.36-.06-.6a2.35 2.35 0 0 0-.253-.718c-.129-.24-.337-.439-.623-.6-.286-.161-.687-.24-1.199-.24-.687 0-1.222.199-1.595.59-.378.392-.563.997-.563 1.813v6.363c0 .816.194 1.42.577 1.812.382.392.922.59 1.609.59.48 0 .862-.078 1.139-.24.281-.16.484-.363.613-.612.129-.25.217-.508.263-.78.046-.272.079-.53.097-.77.032-.447.226-.747.59-.9.36-.151.78-.23 1.259-.23.655 0 1.134.116 1.439.346.304.23.456.71.456 1.43 0 1.056-.263 1.96-.793 2.711-.526.752-1.245 1.324-2.149 1.715-.903.392-1.932.595-3.085.595Zm13.613-.144c-.466 0-.895-.096-1.287-.286-.392-.193-.59-.48-.59-.862V47.932h-3.311c-.35 0-.627-.17-.83-.516a2.341 2.341 0 0 1-.3-1.19c0-.401.088-.774.263-1.13.175-.35.466-.53.862-.53h10.371c.401 0 .687.175.862.53.176.35.263.729.263 1.13 0 .447-.097.844-.286 1.19-.193.346-.47.516-.839.516h-3.311v13.036c0 .383-.198.673-.59.862-.387.19-.812.286-1.277.286Zm7.968 0a3.21 3.21 0 0 1-1.07-.203 2.745 2.745 0 0 1-.95-.553c-.258-.23-.383-.493-.383-.78a1.3 1.3 0 0 1 .046-.262l4.464-14.645c.129-.415.434-.729.913-.936a3.83 3.83 0 0 1 1.536-.314c.558 0 1.074.106 1.549.314.47.207.77.52.899.936l4.491 14.645c.033.13.047.217.047.263 0 .286-.13.548-.383.78-.258.23-.567.414-.936.552a3.16 3.16 0 0 1-1.079.203c-.305 0-.563-.05-.78-.156-.216-.102-.364-.286-.442-.54l-.816-3.002h-5.063l-.817 3.002a.753.753 0 0 1-.433.54 1.917 1.917 0 0 1-.793.156Zm2.808-6.58h3.504l-1.752-6.432-1.752 6.432Z"/>
  <path fill="#3DADC7" d="M50.539 98.927c-.06 2.712-1.79 3.975-4.15 4.316-2.001.291-4.625-2.047-4.74-4.565-.41-8.742-9.357-11.163-16.255-7.497-1.125.6-2.255 1.263-3.463 1.623-1.867.558-3.564-.115-4.547-1.72-.968-1.577-1.032-3.316.526-4.764 1.195-1.11 2.338-2.273 3.505-3.412 4.38-4.228 8.761-8.452 13.142-12.68 2.208.465 3.638 2.291 5.611 3.209 3.256 1.512 6.7 2.204 10.177 2.845l.194 22.645Z"/>
  <path fill="#6EB964" d="M11.478 53.632c-1.107.018-2.21.037-3.316.06-2.135.041-3.55-.95-4.04-3.02-.465-1.974.485-3.33 2.145-4.34 1.286-.784 2.702-1.12 4.127-1.503 6.972-1.877 9.001-8.821 4.16-14.156-.868-.955-1.836-1.845-2.542-2.91-1.318-1.978-1.374-4.053.43-5.773 1.715-1.633 3.748-1.434 5.597-.23 1.38.898 2.578 2.074 3.85 3.126 3.897 3.79 7.794 7.585 11.695 11.38.18.775-.434 1.162-.826 1.632-3.758 4.496-5.293 9.771-5.46 15.53-5.275.07-10.55.14-15.82.204Z"/>
  <path fill="#EA4C63" d="M11.478 53.632c5.275-.065 10.55-.134 15.82-.198.605 5.8 2.486 11.048 6.608 15.336.379.392.71.844.65 1.457-4.38 4.229-8.76 8.457-13.141 12.681-1.826.221-3.86.752-5.003-1.208-1.075-1.835-.554-3.767.608-5.464 4.16-6.082 1.734-12.778-5.155-14.092-1.89-.36-3.412-1.535-3.707-3.634-.29-2.056.899-3.246 2.66-4.039.282-.13.438-.553.66-.84Z"/>
  <path fill="#F8B03B" d="M33.584 36.266 21.89 24.886c-.29-1.646-.669-3.307 1-4.533 1.9-1.397 3.643-.489 5.381.364 7.143 3.514 13.585.581 15.3-6.977.964-4.251 3.104-4.97 6.59-2.213.05 5.916.097 11.828.147 17.74-6.395.387-11.8 3.121-16.724 7Z"/>
  <path fill="#7871B3" d="m50.539 98.927-.194-22.65c2.306-.945 4.879-.618 7.212-1.549 2.652-1.056 5.34-1.978 7.314-4.205.899-1.015 1.636-1.029 2.688.073 2.665 2.804 5.533 5.414 8.272 8.144 1.54 1.535 2.329 3.412.793 5.28-1.567 1.909-3.467 1.452-5.418.253-6.377-3.92-11.38-1.844-13.17 5.381-.788 3.191-3.236 3.81-7.492 1.651-.005 2.647-.005 5.137-.005 7.622Z"/>
  <path fill="#EA4C63" d="M8.67 76.748c-3.21-.083-5.921-2.952-5.848-6.175.079-3.246 2.92-5.925 6.152-5.8 3.287.129 5.911 2.895 5.819 6.137-.097 3.172-2.979 5.92-6.124 5.838Z"/>
  <path fill="#F8B03B" d="M40.385 12.541c.023 3.427-2.458 5.93-5.856 5.912-3.615-.018-5.644-2.089-5.676-5.792-.028-3.412 2.49-5.957 5.86-5.92 3.242.037 5.65 2.499 5.672 5.8Z"/>
  <path fill="#7871B3" d="M72.89 92.329c.022 3.426-2.458 5.93-5.857 5.911-3.615-.018-5.644-2.088-5.676-5.791-.028-3.412 2.49-5.958 5.86-5.921 3.247.037 5.65 2.5 5.672 5.8Z"/>
  <path fill="#3DADC7" d="M36.692 100.454c.023 3.426-2.458 5.93-5.857 5.911-3.615-.018-5.644-2.089-5.676-5.791-.028-3.413 2.49-5.958 5.86-5.921 3.242.037 5.65 2.5 5.673 5.801Z"/>
  <path fill="#EF7752" d="M50.156 11.527c.07-2.204-.018-4.431.245-6.612C50.65 2.83 51.12.58 53.628.04c1.803-.388 4.395 2.065 4.916 4.408.397 1.794.512 3.67 1.097 5.395 1.937 5.736 7.023 8.314 12.949 6.801 2.176-.553 4.044-1.72 6.022-2.692 2.001-.987 4.214-1.48 5.782.58 1.6 2.108.803 4.183-.917 5.935-4.898 4.99-9.813 9.96-14.71 14.959-.766.78-1.443 1.434-2.508.41-4.252-4.058-9.421-5.902-15.208-6.239-.254-.014-.494-.216-.743-.332-.055-5.916-.101-11.827-.152-17.739Z"/>
  <path fill="#EF7752" d="M69.721.557c3.353.037 6.101 2.868 6.036 6.216-.06 3.14-2.89 5.88-6.086 5.893-3.265.014-6.092-2.914-6.004-6.22.078-3.178 2.905-5.921 6.054-5.889Z"/>
  <path fill="#6EB964" d="M5.958 41.989c-3.26 0-5.995-2.74-5.958-5.963.037-3.274 2.78-5.911 6.078-5.847 3.126.065 5.778 2.716 5.838 5.838.064 3.2-2.702 5.971-5.958 5.971Z"/>
  <path fill="#EF7752" d="M99.04 84.243c-1.31 0-2.324.494-3.043 1.482-.719.98-1.078 2.351-1.078 4.11 0 3.662 1.374 5.492 4.121 5.492 1.154 0 2.55-.288 4.189-.865v2.92c-1.347.562-2.852.843-4.514.843-2.389 0-4.215-.723-5.48-2.168-1.266-1.452-1.899-3.534-1.899-6.244 0-1.707.311-3.2.933-4.481.621-1.288 1.512-2.272 2.672-2.954 1.168-.688 2.535-1.033 4.1-1.033 1.594 0 3.196.386 4.806 1.157l-1.123 2.83a18.531 18.531 0 0 0-1.853-.764 5.524 5.524 0 0 0-1.83-.325ZM107.113 98V81.581h3.482V98h-3.482Zm21.617-8.367c0 2.703-.771 4.773-2.313 6.21-1.535 1.438-3.755 2.157-6.66 2.157h-4.649V81.581h5.154c2.681 0 4.762.708 6.245 2.123 1.482 1.415 2.223 3.391 2.223 5.93Zm-3.616.09c0-3.526-1.557-5.29-4.672-5.29h-1.853v10.692h1.494c3.354 0 5.031-1.8 5.031-5.402ZM142.564 98l-1.19-3.908h-5.986L134.198 98h-3.751l5.795-16.486h4.256L146.315 98h-3.751Zm-2.021-6.828a2714.256 2714.256 0 0 1-1.864-6.008 18.029 18.029 0 0 1-.292-1.101c-.247.958-.955 3.328-2.123 7.109h4.279Zm21.852-1.539c0 2.703-.771 4.773-2.313 6.21-1.535 1.438-3.755 2.157-6.66 2.157h-4.649V81.581h5.155c2.68 0 4.761.708 6.244 2.123 1.482 1.415 2.223 3.391 2.223 5.93Zm-3.616.09c0-3.526-1.557-5.29-4.672-5.29h-1.853v10.692h1.494c3.354 0 5.031-1.8 5.031-5.402ZM176.23 98l-1.191-3.908h-5.986L167.863 98h-3.751l5.795-16.486h4.256L179.981 98h-3.751Zm-2.022-6.828c-1.1-3.541-1.722-5.544-1.864-6.008a18.801 18.801 0 0 1-.292-1.101c-.247.958-.955 3.328-2.123 7.109h4.279Zm-3.998-12.084c-.232 0-.457.101-.674.303-.209.195-.363.494-.46.899h-1.674c.083-1.086.39-1.936.921-2.55.539-.614 1.251-.92 2.134-.92.307 0 .607.063.899.19.299.12.591.255.876.405.292.142.576.273.853.393s.55.18.82.18c.232 0 .453-.098.662-.293.218-.194.375-.494.472-.898h1.674c-.083 1.085-.397 1.935-.944 2.55-.539.613-1.243.92-2.111.92-.307 0-.61-.06-.91-.18a22.784 22.784 0 0 1-.876-.404c-.284-.15-.565-.284-.842-.404a1.951 1.951 0 0 0-.82-.191Zm27.131 10.68c0 2.718-.674 4.807-2.021 6.267-1.348 1.46-3.28 2.19-5.795 2.19-2.516 0-4.448-.73-5.795-2.19-1.348-1.46-2.022-3.557-2.022-6.29 0-2.732.674-4.817 2.022-6.255 1.355-1.445 3.294-2.167 5.817-2.167s4.451.726 5.784 2.178c1.34 1.453 2.01 3.542 2.01 6.267Zm-11.983 0c0 1.834.348 3.216 1.045 4.144.696.928 1.737 1.393 3.122 1.393 2.777 0 4.166-1.846 4.166-5.537 0-3.698-1.381-5.548-4.144-5.548-1.385 0-2.429.468-3.133 1.404-.704.928-1.056 2.31-1.056 4.144Z"/>
</svg>
