<svg xmlns="http://www.w3.org/2000/svg" width="183" height="511" fill="none" viewBox="0 0 183 511">
  <g opacity=".1">
    <path fill="#6EB964" d="M-88.653 103.91a3827.68 3827.68 0 0 0 2.74-16.142c1.751-10.398 7.857-16.361 18.35-16.84 10.003-.455 15.712 5.394 19.095 14.372 2.627 6.96 2.966 14.137 3.52 21.401 2.733 35.547 34.575 51.742 64.89 33.126 5.424-3.334 10.628-7.219 16.442-9.669 10.805-4.59 20.924-2.961 27.622 7.36 6.352 9.816 3.53 19.502-4 27.374-5.624 5.868-12.426 10.611-18.69 15.825C19.36 196.159-2.619 211.596-24.6 227.056c-3.924.164-5.243-3.166-7.167-5.498-18.38-22.347-42.573-34.621-70.368-40.692 4.488-25.661 8.975-51.322 13.481-76.956Z"/>
    <path fill="#F8B03B" d="M-24.6 227.055c21.982-15.459 43.96-30.896 65.915-46.338 8.254.096 16.655-.221 21.08 9 5.043 10.496-.959 18.123-6.688 25.779-23.58 31.447-15.24 65.386 19.865 80.62 19.749 8.564 21.283 19.604 4.715 33.999-28.754-5.164-57.481-10.345-86.213-15.504 3.969-31.389-4.359-60.113-18.673-87.556Z"/>
    <path fill="#F8B03B" d="M84.303 281.751c-16.646-3.02-26.527-17.348-23.33-33.822 3.394-17.525 15.296-25.477 33.293-22.248 16.583 2.986 26.632 17.53 23.371 33.853-3.143 15.696-17.292 25.124-33.334 22.217Z"/>
    <path fill="#EF7752" d="M80.291 330.092c10.633 2.351 21.52 3.962 31.863 7.232 9.886 3.114 20.375 7.454 20.7 20.119.231 9.103-14.042 19.435-25.885 19.822-9.067.284-18.28-.873-27.183.392-29.606 4.153-46.764 26.476-44.843 56.611.695 11.067 4.649 21.196 7.561 31.685 2.959 10.613 3.33 21.804-8.106 27.527-11.689 5.838-21.028.07-27.958-9.879-19.733-28.324-39.359-56.721-59.136-85.054-3.082-4.427-5.64-8.315.302-12.548 23.577-16.919 37.254-40.316 44.179-68.089.299-1.218 1.502-2.196 2.29-3.299 28.758 5.141 57.485 10.322 86.216 15.481Z"/>
    <path fill="#EF7752" d="M115.633 435.061c-3.244 16.233-19.495 26.98-35.68 23.606-15.184-3.162-25.886-19.405-23.031-34.924 2.918-15.854 19.71-26.893 35.674-23.445 15.345 3.286 26.074 19.51 23.037 34.763Z"/>
    <path fill="#6EB964" d="M-27.108 87.773c2.98-15.82 18.772-26.584 34.378-23.458 15.853 3.173 26.143 18.898 22.815 34.837-3.171 15.111-18.462 25.553-33.664 22.99-15.588-2.613-26.506-18.572-23.53-34.37Z"/>
  </g>
</svg>
