<svg xmlns="http://www.w3.org/2000/svg" width="150" height="150" fill="none" viewBox="0 0 150 150">
  <path fill="#fff" d="M50.476 82V69.508h1.692V82h-1.692Zm1.152 0v-1.548h7.164V82h-7.164Zm0-5.652v-1.476h6.57v1.476h-6.57Zm0-5.292v-1.548h7.074v1.548h-7.074ZM66.853 82v-4.986c0-.648-.204-1.182-.612-1.602-.408-.42-.936-.63-1.584-.63a2.28 2.28 0 0 0-1.152.288c-.336.192-.6.456-.792.792a2.28 2.28 0 0 0-.288 1.152l-.666-.378c0-.648.144-1.224.432-1.728.288-.504.69-.9 1.206-1.188a3.41 3.41 0 0 1 1.746-.45c.648 0 1.218.162 1.71.486.504.324.9.75 1.188 1.278.288.516.432 1.068.432 1.656V82h-1.62Zm-6.048 0v-8.55h1.62V82h-1.62Zm11.07 0V69.868h1.62V82h-1.62Zm-2.106-7.074V73.45h5.832v1.476h-5.832ZM77.188 82v-8.55h1.62V82h-1.62Zm1.62-4.878-.612-.27c0-1.092.252-1.962.756-2.61.504-.648 1.23-.972 2.178-.972.432 0 .822.078 1.17.234.348.144.672.39.972.738L82.21 75.34a1.62 1.62 0 0 0-.594-.414 2.08 2.08 0 0 0-.756-.126c-.6 0-1.092.192-1.476.576-.384.384-.576.966-.576 1.746Zm8.96 5.058a4.03 4.03 0 0 1-2.125-.576 4.312 4.312 0 0 1-1.512-1.602c-.36-.672-.54-1.428-.54-2.268 0-.84.18-1.596.54-2.268a4.363 4.363 0 0 1 1.494-1.602 3.97 3.97 0 0 1 2.142-.594c.648 0 1.224.138 1.728.414.516.264.93.636 1.242 1.116.312.468.486 1.014.522 1.638v2.574a3.307 3.307 0 0 1-.522 1.638c-.3.48-.708.858-1.224 1.134-.504.264-1.086.396-1.746.396Zm.27-1.53c.803 0 1.451-.27 1.943-.81.492-.552.738-1.254.738-2.106 0-.588-.114-1.098-.342-1.53a2.354 2.354 0 0 0-.936-1.026c-.408-.252-.882-.378-1.422-.378-.54 0-1.02.126-1.44.378a2.72 2.72 0 0 0-.972 1.044c-.228.432-.342.93-.342 1.494 0 .576.114 1.086.342 1.53.24.432.57.774.99 1.026.42.252.9.378 1.44.378ZM90.61 82v-2.304l.306-2.088-.306-2.07V73.45h1.638V82H90.61Zm3.997 0v-8.55h1.62V82h-1.62Zm1.62-4.878-.612-.27c0-1.092.252-1.962.756-2.61.504-.648 1.23-.972 2.178-.972.432 0 .822.078 1.17.234.348.144.672.39.972.738L99.63 75.34a1.62 1.62 0 0 0-.594-.414 2.08 2.08 0 0 0-.756-.126c-.6 0-1.092.192-1.476.576-.384.384-.576.966-.576 1.746Z"/>
  <circle cx="75" cy="75" r="75" fill="#D6EFF4"/>
  <g clip-path="url(#a)">
    <path fill="#34ADC6" d="M75 100c2.975 0 5.708 1.042 7.858 2.775L75 112.5l-7.859-9.725A12.443 12.443 0 0 1 75 100ZM36.7 30.804l73.654 73.658-5.892 5.892-21.583-21.583a24.975 24.975 0 0 0-7.88-1.271c-5.95 0-11.416 2.08-15.708 5.55l-5.233-6.483a33.18 33.18 0 0 1 19.258-7.359L62.5 68.392a45.703 45.703 0 0 0-16.3 8.454l-5.242-6.484a54.1 54.1 0 0 1 14.942-8.57l-9.517-9.521a66.706 66.706 0 0 0-13.27 8.362l-5.242-6.479a75.07 75.07 0 0 1 12.3-8.092L30.804 36.7l5.896-5.896Zm48.716 37.05L75.9 58.342l-.9-.009a53.94 53.94 0 0 1 34.041 12.03l-5.241 6.483a45.669 45.669 0 0 0-18.384-8.992ZM75 37.5c17.854 0 34.25 6.237 47.125 16.654l-5.238 6.48A66.385 66.385 0 0 0 75 45.833c-3.659 0-7.25.291-10.75.862l-7.063-7.071A75.32 75.32 0 0 1 75 37.5Z"/>
  </g>
  <defs>
    <clipPath id="a">
      <path fill="#fff" d="M0 0h100v100H0z" transform="translate(25 25)"/>
    </clipPath>
  </defs>
</svg>
