<svg xmlns="http://www.w3.org/2000/svg" width="136" height="473" fill="none" viewBox="0 0 136 473">
  <g opacity=".1">
    <path fill="#3DADC7" d="M249.551 435.484c-.296 13.388-8.834 19.627-20.492 21.312-9.882 1.434-22.837-10.11-23.406-22.541-2.027-43.171-46.199-55.124-80.262-37.023-5.555 2.96-11.134 6.239-17.099 8.015-9.222 2.755-17.6-.57-22.45-8.493-4.782-7.787-5.1-16.371 2.595-23.521 5.897-5.487 11.544-11.225 17.305-16.849 21.63-20.879 43.261-41.736 64.892-62.615 10.906 2.3 17.964 11.316 27.71 15.847 16.075 7.469 33.083 10.884 50.251 14.049l.956 111.819Z"/>
    <path fill="#6EB964" d="M56.674 211.823c-5.464.091-10.906.182-16.37.296-10.543.205-17.533-4.69-19.947-14.914-2.3-9.745 2.391-16.439 10.588-21.425 6.353-3.871 13.343-5.533 20.379-7.423C85.75 159.09 95.769 124.8 71.86 98.456c-4.28-4.713-9.062-9.108-12.546-14.368-6.511-9.767-6.785-20.014 2.118-28.506 8.47-8.06 18.511-7.082 27.642-1.139 6.808 4.44 12.728 10.246 19.012 15.438 19.24 18.716 38.48 37.455 57.742 56.194.888 3.825-2.14 5.737-4.075 8.06-18.557 22.2-26.139 48.248-26.959 76.686-26.048.342-52.096.683-78.12 1.002Z"/>
    <path fill="#EA4C63" d="M56.674 211.823c26.048-.319 52.096-.66 78.121-.979 2.983 28.644 12.273 54.555 32.628 75.73 1.867 1.935 3.507 4.167 3.211 7.195-21.631 20.879-43.262 41.759-64.892 62.615-9.017 1.093-19.058 3.712-24.705-5.965-5.305-9.062-2.732-18.603 3.006-26.982 20.537-30.032 8.56-63.093-25.456-69.582-9.336-1.776-16.85-7.582-18.307-17.942-1.434-10.155 4.44-16.03 13.138-19.946 1.39-.637 2.163-2.732 3.256-4.144Z"/>
    <path fill="#F8B03B" d="M165.829 126.075c-19.263-18.739-38.502-37.478-57.742-56.195-1.435-8.128-3.302-16.325 4.941-22.381 9.38-6.9 17.987-2.414 26.571 1.798 35.269 17.35 67.078 2.87 75.548-34.45 4.759-20.993 15.324-24.545 32.537-10.929.251 29.213.478 58.403.729 87.593-31.581 1.913-58.266 15.415-82.584 34.564Z"/>
    <path fill="#EA4C63" d="M42.808 325.965c-15.848-.41-29.236-14.572-28.872-30.488.387-16.03 14.413-29.258 30.374-28.644 16.235.638 29.19 14.299 28.735 30.306-.478 15.665-14.709 29.236-30.237 28.826Z"/>
    <path fill="#3DADC7" d="M181.176 443.021c.113 16.917-12.136 29.281-28.917 29.19-17.851-.091-27.87-10.315-28.029-28.598-.137-16.849 12.295-29.418 28.94-29.236 16.006.182 27.892 12.341 28.006 28.644Z"/>
    <path fill="#6EB964" d="M29.42 154.331c-16.098 0-29.6-13.525-29.418-29.44.182-16.166 13.73-29.19 30.01-28.872 15.437.32 28.53 13.411 28.825 28.826.319 15.802-13.343 29.486-29.418 29.486Z"/>
  </g>
</svg>
