<svg xmlns="http://www.w3.org/2000/svg" width="375" height="812" fill="none" viewBox="0 0 375 812">
  <g clip-path="url(#a)">
    <path fill="#fff" d="M0 0h375v812H0z"/>
    <g opacity=".1">
      <path fill="#3DADC7" d="M488.551 435.484c-.296 13.388-8.834 19.627-20.492 21.312-9.882 1.434-22.837-10.11-23.407-22.541-2.026-43.171-46.198-55.124-80.261-37.023-5.555 2.96-11.134 6.239-17.099 8.015-9.222 2.755-17.601-.57-22.451-8.493-4.781-7.787-5.1-16.371 2.596-23.521 5.897-5.487 11.544-11.225 17.305-16.849 21.63-20.879 43.261-41.736 64.892-62.615 10.906 2.3 17.964 11.316 27.71 15.847 16.075 7.469 33.083 10.884 50.251 14.049l.956 111.819Z"/>
      <path fill="#6EB964" d="M295.674 211.823c-5.464.091-10.906.182-16.371.296-10.542.205-17.532-4.69-19.946-14.914-2.299-9.745 2.391-16.439 10.588-21.425 6.353-3.871 13.343-5.533 20.378-7.423 34.427-9.267 44.446-43.557 20.538-69.901-4.28-4.713-9.062-9.108-12.546-14.368-6.512-9.767-6.785-20.014 2.118-28.506 8.47-8.06 18.511-7.082 27.642-1.139 6.808 4.44 12.728 10.246 19.012 15.438 19.24 18.716 38.48 37.455 57.742 56.194.888 3.825-2.14 5.737-4.075 8.06-18.557 22.2-26.139 48.248-26.959 76.686-26.048.342-52.096.683-78.121 1.002Z"/>
      <path fill="#EA4C63" d="M295.674 211.823c26.048-.319 52.096-.66 78.121-.979 2.983 28.644 12.273 54.555 32.628 75.73 1.867 1.935 3.507 4.167 3.211 7.195-21.631 20.879-43.262 41.759-64.892 62.615-9.017 1.093-19.058 3.712-24.705-5.965-5.305-9.062-2.732-18.603 3.006-26.982 20.538-30.032 8.561-63.093-25.456-69.582-9.335-1.776-16.849-7.582-18.306-17.942-1.435-10.155 4.44-16.03 13.137-19.946 1.389-.637 2.163-2.732 3.256-4.144Z"/>
      <path fill="#F8B03B" d="M404.829 126.075c-19.263-18.739-38.503-37.478-57.742-56.195-1.435-8.128-3.302-16.325 4.94-22.381 9.381-6.9 17.988-2.414 26.572 1.798 35.269 17.35 67.078 2.87 75.548-34.45 4.759-20.993 15.324-24.545 32.537-10.929.251 29.213.478 58.403.729 87.593-31.581 1.913-58.267 15.415-82.584 34.564Z"/>
      <path fill="#EA4C63" d="M281.808 325.965c-15.848-.41-29.236-14.572-28.872-30.488.388-16.03 14.413-29.258 30.374-28.644 16.235.638 29.19 14.299 28.735 30.306-.478 15.665-14.709 29.236-30.237 28.826Z"/>
      <path fill="#3DADC7" d="M420.176 443.021c.114 16.917-12.136 29.281-28.917 29.19-17.851-.091-27.869-10.315-28.029-28.598-.136-16.849 12.295-29.418 28.94-29.236 16.006.182 27.892 12.341 28.006 28.644Z"/>
      <path fill="#6EB964" d="M268.42 154.331c-16.098 0-29.6-13.525-29.418-29.44.182-16.166 13.73-29.19 30.01-28.872 15.437.32 28.529 13.411 28.825 28.826.319 15.802-13.342 29.486-29.417 29.486Z"/>
    </g>
    <g opacity=".1">
      <path fill="#6EB964" d="M-88.653 386.91c.922-5.387 1.84-10.751 2.74-16.143 1.751-10.397 7.856-16.36 18.35-16.839 10.002-.455 15.712 5.394 19.095 14.372 2.627 6.96 2.966 14.137 3.52 21.401 2.732 35.547 34.575 51.742 64.89 33.126 5.424-3.334 10.628-7.219 16.442-9.669 10.804-4.59 20.924-2.961 27.621 7.36 6.353 9.816 3.532 19.502-4 27.374-5.623 5.868-12.425 10.611-18.69 15.825C19.36 479.159-2.618 494.596-24.6 510.056c-3.923.164-5.242-3.166-7.166-5.498-18.38-22.347-42.573-34.621-70.368-40.692a89306.23 89306.23 0 0 1 13.481-76.956Z"/>
      <path fill="#F8B03B" d="M-24.6 510.055c21.982-15.459 43.96-30.896 65.915-46.338 8.254.096 16.655-.221 21.08 9 5.043 10.496-.959 18.123-6.688 25.779-23.58 31.447-15.24 65.386 19.865 80.62 19.749 8.564 21.283 19.604 4.715 33.999-28.754-5.164-57.481-10.345-86.213-15.504 3.969-31.389-4.359-60.113-18.673-87.556Z"/>
      <path fill="#F8B03B" d="M84.303 564.751c-16.646-3.02-26.527-17.348-23.33-33.822 3.394-17.525 15.296-25.477 33.293-22.248 16.583 2.986 26.632 17.53 23.371 33.853-3.143 15.696-17.292 25.124-33.334 22.217Z"/>
      <path fill="#EF7752" d="M80.291 613.092c10.633 2.351 21.52 3.962 31.863 7.232 9.886 3.114 20.375 7.454 20.7 20.119.231 9.103-14.042 19.435-25.885 19.822-9.067.284-18.28-.873-27.183.392-29.606 4.153-46.764 26.476-44.843 56.611.695 11.067 4.649 21.196 7.561 31.685 2.959 10.613 3.33 21.804-8.106 27.527-11.689 5.838-21.028.07-27.958-9.879-19.733-28.324-39.359-56.721-59.136-85.054-3.082-4.427-5.64-8.315.302-12.548 23.577-16.919 37.254-40.316 44.179-68.089.299-1.218 1.502-2.196 2.29-3.299 28.758 5.141 57.485 10.322 86.216 15.481Z"/>
      <path fill="#EF7752" d="M115.633 718.061c-3.244 16.233-19.495 26.98-35.68 23.606-15.183-3.162-25.886-19.405-23.031-34.924 2.918-15.854 19.71-26.893 35.674-23.445 15.345 3.286 26.074 19.51 23.037 34.763Z"/>
      <path fill="#6EB964" d="M-27.108 370.773c2.98-15.82 18.772-26.584 34.379-23.458 15.852 3.173 26.142 18.898 22.815 34.837-3.172 15.111-18.462 25.553-33.665 22.99-15.588-2.613-26.506-18.572-23.53-34.369Z"/>
    </g>
  </g>
  <defs>
    <clipPath id="a">
      <path fill="#fff" d="M0 0h375v812H0z"/>
    </clipPath>
  </defs>
</svg>
