<svg xmlns="http://www.w3.org/2000/svg" width="24" height="19" fill="none" viewBox="0 0 24 19">
  <path fill="#000" fill-rule="evenodd" d="M9.879.01a.738.738 0 0 0-.395.201c-.08.08-.133.16-.297.443-.022.039-.13.218-.24.398-.232.385-.397.666-.42.715-.01.02-.11.188-.225.375l-.207.34h-2.06l.007-.205c.015-.461-.11-.73-.417-.889l-.105-.054-1.46-.007-1.461-.006-.15.071c-.156.075-.229.145-.333.324-.059.1-.065.133-.076.437l-.013.33-.28.014c-.302.015-.346.022-.563.096a1.84 1.84 0 0 0-.792.542 2.234 2.234 0 0 0-.332.629l-.06.18V17.2l.049.164c.114.386.317.697.604.927.182.145.372.243.623.322l.189.059 10.277.005c5.653.002 10.415-.004 10.582-.014.195-.012.357-.035.45-.065.58-.188.996-.624 1.177-1.234L24 17.2V3.959l-.059-.187c-.188-.593-.57-.985-1.171-1.2l-.188-.066-3.338-.012-3.338-.012-.207-.34a17.99 17.99 0 0 1-.238-.398c-.04-.075-.376-.641-.507-.856a10.43 10.43 0 0 1-.16-.27c-.186-.331-.3-.461-.485-.555l-.118-.06L12.082 0a96.521 96.521 0 0 0-2.203.01Zm11.513 4.762c.263.115.452.385.452.647a.763.763 0 0 1-.315.566c-.184.114-.233.118-1.424.118-1.147 0-1.28-.008-1.45-.095a.812.812 0 0 1-.299-.323c-.053-.123-.052-.459.004-.562a.758.758 0 0 1 .437-.363c.02-.007.596-.013 1.282-.014.932-.002 1.264.005 1.313.026Zm-8.813.884c.062.012.191.034.288.05.305.048.637.14.914.252a5.018 5.018 0 0 1 1.778 1.175 4.946 4.946 0 0 1 1.092 5.17c-.097.27-.264.63-.358.77a1.951 1.951 0 0 0-.094.157c-.08.157-.44.6-.698.858a4.844 4.844 0 0 1-1.978 1.215c-.568.178-.905.23-1.523.23-.537 0-.838-.037-1.266-.154a4.873 4.873 0 0 1-2.225-1.281 4.802 4.802 0 0 1-1.145-1.751 4.92 4.92 0 0 1-.058-3.35c.045-.128.087-.253.094-.276.036-.124.31-.639.456-.856a4.04 4.04 0 0 1 .623-.77c.504-.507 1.033-.852 1.74-1.137a4.42 4.42 0 0 1 .914-.253c.097-.015.218-.037.27-.047.131-.026 1.04-.028 1.176-.002Zm-1 1.467a3.668 3.668 0 0 0-1.051.295c-.928.44-1.638 1.278-1.891 2.236-.147.554-.156 1.268-.024 1.781.115.444.35.926.63 1.295.158.206.542.564.777.724.465.316.894.483 1.524.593.185.032.73.032.912 0 .335-.06.41-.077.587-.132a3.541 3.541 0 0 0 2.244-2.163c.148-.424.187-.667.19-1.16.003-.72-.179-1.348-.553-1.91-.527-.792-1.251-1.293-2.162-1.497a3.009 3.009 0 0 0-1.184-.062Z" clip-rule="evenodd"/>
</svg>
