<svg xmlns="http://www.w3.org/2000/svg" width="24" height="24" fill="none" viewBox="0 0 24 24">
  <path fill="#2D6AB0" fill-rule="evenodd" d="M3.085.293C1.086 1.013.042 2.564.032 4.827L.027 6.12l3.816 4.31c2.099 2.371 3.915 4.348 4.036 4.392.127.047.219-2.629.217-6.335-.004-6.21-.022-6.447-.558-7.39-.55-.97-.561-.975-2.136-1.022-.87-.026-1.914.072-2.317.218Zm7.657 9.195.074 9.489-.612.4c-.358.233-.818.335-1.106.244-.271-.086-2.026-1.822-3.9-3.858-1.875-2.036-3.811-4.086-4.303-4.555L0 10.356l.075 5.501.074 5.502.66.86C2.158 23.98 2.28 24 12.012 24c9.836 0 9.96-.021 11.214-1.908.65-.977.65-.986.71-6.358l.06-5.379-4.645 4.718c-4.295 4.36-4.696 4.704-5.32 4.555-1.313-.316-1.307-.265-1.232-9.879.038-4.893.164-9.088.28-9.322.186-.38.063-.427-1.101-.427h-1.311l.074 9.488Zm5.723-8.385c-.512 1.05-.538 1.408-.538 7.452 0 3.492.095 6.312.21 6.267.116-.044 1.933-2.042 4.037-4.44L24 6.022l-.005-1.244C23.98 1.677 22.115 0 18.675 0h-1.672l-.538 1.103Z" clip-rule="evenodd"/>
</svg>
