<svg xmlns="http://www.w3.org/2000/svg" width="21" height="14" fill="none" viewBox="0 0 21 14">
  <path fill="#000" stroke="#F5F5F5" stroke-linecap="round" stroke-linejoin="round" d="M14.657 3.026A1.5 1.5 0 1 0 12.468.974l-7.03 7.5-2.344-2.5A1.5 1.5 0 1 0 .906 8.026l3.437 3.667a1.5 1.5 0 0 0 2.189 0l8.125-8.667Z"/>
  <path fill="#000" stroke="#F5F5F5" stroke-linecap="round" stroke-linejoin="round" d="M19.365 3.693a1.5 1.5 0 1 0-2.189-2.052l-7.03 7.5-2.344-2.5a1.5 1.5 0 0 0-2.188 2.052l3.437 3.666a1.5 1.5 0 0 0 2.189 0l8.125-8.666Z"/>
</svg>
