<svg xmlns="http://www.w3.org/2000/svg" width="23" height="24" fill="none" viewBox="0 0 23 24">
  <path fill="#000" fill-rule="evenodd" d="M4.592.054C4.203.16 3.95.32 3.374.823c-.29.252-.68.586-.867.743-.63.526-1.325 1.44-1.724 2.27l-.27.556a.456.456 0 0 0-.042.174c0 .051-.019.105-.042.119-.023.014-.054.084-.068.156a9.04 9.04 0 0 1-.079.344A9.774 9.774 0 0 0 .07 6.202c-.145.887-.056 2.275.214 3.336.03.117.065.293.078.39.014.098.044.19.068.204.023.014.042.077.042.139 0 .062.021.126.047.142.026.016.048.07.048.122 0 .05.02.13.043.174.024.046.113.263.196.485.21.553.76 1.722.966 2.058.065.104.182.306.26.45.667 1.21 2.223 3.231 3.768 4.893 1.205 1.296 2.587 2.492 3.905 3.378.355.238.662.434.682.434.02 0 .07.03.111.067.093.083 1.142.611 1.4.704l.615.22c.234.082.468.169.52.192.102.044.98.26 1.254.307.159.028.369.045 1.207.099.352.022 1.057-.049 1.655-.167.13-.026.312-.06.403-.075.09-.016.208-.047.26-.068.052-.022.17-.066.26-.098 1.026-.362 1.837-.839 2.582-1.519.21-.191.568-.517.796-.722.536-.483.762-.785.855-1.142.217-.83-.27-1.677-1.66-2.888-1.232-1.074-1.712-1.427-2.365-1.738-.548-.26-1.17-.4-1.409-.317a1.027 1.027 0 0 1-.281.048c-.079 0-.315.084-.525.187-.418.204-.973.654-1.754 1.421-.633.621-.899.757-1.48.757-.491 0-.85-.104-1.329-.386-.547-.322-.61-.367-1.226-.882-1.086-.907-2.753-2.835-3.486-4.03a64.526 64.526 0 0 0-.287-.465 5.473 5.473 0 0 1-.485-1.144c-.062-.254-.128-.79-.114-.923.06-.576.279-.898.955-1.409C7.934 7.624 8.7 6.857 8.782 6.513a.619.619 0 0 1 .063-.169c.055-.075.11-.447.114-.757.003-.266-.135-.983-.21-1.088a1.354 1.354 0 0 1-.094-.234c-.196-.61-1.595-2.78-2.217-3.44C5.94.294 5.604.107 4.966.002a1.197 1.197 0 0 0-.374.05Z" clip-rule="evenodd"/>
</svg>
