<svg xmlns="http://www.w3.org/2000/svg" width="24" height="24" fill="none" viewBox="0 0 24 24">
  <g clip-path="url(#a)">
    <path fill="#000" d="M13 21C7.477 21 3 16.523 3 11S7.477 1 13 1s10 4.477 10 10-4.477 10-10 10Zm0-2a8 8 0 1 0 0-16.001A8 8 0 0 0 13 19Zm-5-3a5 5 0 1 1 10 0h-2a3 3 0 0 0-6 0H8Zm1-6a1.5 1.5 0 1 1 0-3 1.5 1.5 0 0 1 0 3Zm8 0a1.5 1.5 0 1 1 0-3 1.5 1.5 0 0 1 0 3Z"/>
  </g>
  <defs>
    <clipPath id="a">
      <path fill="#fff" d="M0 0h24v24H0z"/>
    </clipPath>
  </defs>
</svg>
