<svg xmlns="http://www.w3.org/2000/svg" width="34" height="34" fill="none" viewBox="0 0 34 34">
  <g clip-path="url(#a)">
    <path fill="#000" d="m17.997 16.003.007-8.902a1.004 1.004 0 0 0-2.008 0l.007 8.902-8.903-.007a1.004 1.004 0 0 0 0 2.008l8.903-.007-.007 8.902a1.002 1.002 0 0 0 1.715.712.999.999 0 0 0 .293-.712l-.007-8.902 8.902.007a1.002 1.002 0 0 0 .712-1.715.999.999 0 0 0-.712-.293l-8.902.007Z"/>
  </g>
  <defs>
    <clipPath id="a">
      <path fill="#fff" d="M0 0h24v24H0z" transform="rotate(-45 20.535 8.465)"/>
    </clipPath>
  </defs>
</svg>
