<svg xmlns="http://www.w3.org/2000/svg" width="20" height="20" fill="none" viewBox="0 0 20 20">
  <g clip-path="url(#a)">
    <path fill="#000" d="M14.512 11.982c-.247-.124-1.465-.724-1.692-.806-.227-.083-.392-.124-.557.124-.165.247-.64.806-.785.97-.144.166-.289.186-.536.062a6.766 6.766 0 0 1-1.991-1.228 7.456 7.456 0 0 1-1.378-1.716c-.144-.248-.015-.382.109-.505.111-.111.248-.29.371-.434.102-.126.185-.265.248-.413a.455.455 0 0 0-.021-.434c-.062-.124-.557-1.343-.763-1.84-.201-.481-.405-.416-.558-.424a10.118 10.118 0 0 0-.474-.01.91.91 0 0 0-.66.312 2.776 2.776 0 0 0-.867 2.065c.08.934.432 1.824 1.011 2.562a11.035 11.035 0 0 0 4.23 3.739c.461.198.933.372 1.412.522a3.39 3.39 0 0 0 1.56.097 2.543 2.543 0 0 0 1.671-1.176c.162-.37.213-.78.144-1.178-.061-.104-.226-.165-.474-.29Zm2.492-9.08a9.913 9.913 0 0 0-15.598 11.96L0 19.996l5.254-1.377a9.904 9.904 0 0 0 4.736 1.206h.004a9.915 9.915 0 0 0 7.01-16.922Zm-2.633 13.99a8.245 8.245 0 0 1-4.377 1.259H9.99A8.222 8.222 0 0 1 5.798 17l-.301-.177-3.118.818.832-3.04-.195-.312a8.237 8.237 0 1 1 11.355 2.602Z"/>
  </g>
  <defs>
    <clipPath id="a">
      <path fill="#fff" d="M0 0h19.904v19.996H0z"/>
    </clipPath>
  </defs>
</svg>
